<svg width="228" height="70" viewBox="0 0 228 70" fill="none" xmlns="http://www.w3.org/2000/svg">
<g filter="url(#filter0_d_173_18)">
<circle cx="206" cy="22" r="17" fill="white"/>
<path d="M206 13C204.22 13 202.48 13.5278 201 14.5168C199.52 15.5057 198.366 16.9113 197.685 18.5558C197.004 20.2004 196.826 22.01 197.173 23.7558C197.52 25.5016 198.377 27.1053 199.636 28.364C200.895 29.6226 202.498 30.4798 204.244 30.8271C205.99 31.1743 207.8 30.9961 209.444 30.3149C211.089 29.6337 212.494 28.4802 213.483 27.0001C214.472 25.5201 215 23.78 215 22C214.998 19.6138 214.049 17.326 212.361 15.6387C210.674 13.9514 208.386 13.0024 206 13ZM211.345 19.9417V20.5231C211.345 20.5676 211.336 20.6116 211.319 20.6526C211.302 20.6936 211.276 20.7308 211.244 20.7618C211.213 20.7928 211.175 20.8172 211.133 20.8334C211.092 20.8496 211.048 20.8573 211.003 20.8561C210.053 20.789 209.144 20.442 208.39 19.8589V24.1141C208.39 24.585 208.296 25.0512 208.114 25.4854C207.931 25.9197 207.664 26.3132 207.328 26.6431C206.99 26.9816 206.587 27.2491 206.143 27.4299C205.7 27.6107 205.224 27.7012 204.745 27.6961C203.782 27.6947 202.858 27.3168 202.17 26.6431C201.732 26.2016 201.416 25.6536 201.254 25.0532C201.092 24.4527 201.09 23.8205 201.246 23.2186C201.389 22.6408 201.678 22.1098 202.086 21.6769C202.39 21.3053 202.773 21.0063 203.208 20.8018C203.642 20.5974 204.117 20.4926 204.597 20.4952H205.335V22.0279C205.335 22.0724 205.326 22.1165 205.308 22.1572C205.29 22.1979 205.263 22.2342 205.23 22.2639C205.197 22.2935 205.158 22.3157 205.115 22.329C205.073 22.3424 205.028 22.3465 204.984 22.3411C204.555 22.2124 204.094 22.2551 203.696 22.4602C203.298 22.6653 202.996 23.0167 202.852 23.4405C202.709 23.8643 202.735 24.3272 202.927 24.7317C203.118 25.1363 203.458 25.4508 203.877 25.609C204.12 25.7485 204.392 25.8304 204.671 25.8493C204.887 25.8583 205.103 25.8313 205.308 25.7665C205.65 25.6509 205.948 25.4313 206.16 25.1384C206.372 24.8454 206.487 24.4936 206.49 24.1321V16.3786C206.49 16.2928 206.524 16.2106 206.584 16.1498C206.645 16.0891 206.727 16.0548 206.813 16.0546H208.086C208.169 16.0547 208.249 16.0865 208.309 16.1434C208.369 16.2003 208.405 16.278 208.409 16.3606C208.456 16.7577 208.582 17.1413 208.78 17.4885C208.978 17.8357 209.245 18.1393 209.563 18.3811C209.993 18.7041 210.504 18.9022 211.04 18.9535C211.12 18.9604 211.195 18.996 211.251 19.054C211.307 19.1119 211.34 19.1881 211.344 19.2685L211.345 19.9417Z" fill="#AA461A"/>
</g>
<g filter="url(#filter1_d_173_18)">
<g filter="url(#filter2_d_173_18)">
<path d="M165.8 21.7999C165.8 31.0783 158.278 38.5999 149 38.5999C139.722 38.5999 132.2 31.0783 132.2 21.7999C132.2 12.5216 139.722 5 149 5C158.278 5 165.8 12.5216 165.8 21.7999Z" fill="#AA461A"/>
</g>
<path d="M154.25 21.8C154.25 23.1924 153.697 24.5277 152.712 25.5123C151.728 26.4969 150.392 27.05 149 27.05C147.608 27.05 146.272 26.4969 145.288 25.5123C144.303 24.5277 143.75 23.1924 143.75 21.8C143.75 21.5008 143.781 21.2085 143.836 20.925H142V27.9198C142 28.4063 142.394 28.8 142.88 28.8H155.121C155.355 28.7995 155.578 28.7066 155.743 28.5416C155.907 28.3765 156 28.1529 156 27.9198V20.925H154.164C154.218 21.2085 154.25 21.5008 154.25 21.8ZM149 25.3C149.46 25.2999 149.915 25.2092 150.34 25.0332C150.764 24.8571 151.15 24.5992 151.475 24.274C151.8 23.9488 152.058 23.5628 152.234 23.138C152.41 22.7133 152.5 22.258 152.5 21.7983C152.5 21.3385 152.409 20.8833 152.233 20.4586C152.057 20.0339 151.799 19.648 151.474 19.323C151.149 18.998 150.763 18.7402 150.338 18.5644C149.913 18.3886 149.458 18.2981 148.998 18.2983C148.07 18.2985 147.179 18.6675 146.523 19.3243C145.867 19.981 145.498 20.8715 145.498 21.8C145.498 22.7285 145.867 23.6189 146.524 24.2752C147.181 24.9316 148.071 25.3002 149 25.3ZM153.2 18.125H155.298C155.438 18.125 155.571 18.0697 155.67 17.9713C155.769 17.8729 155.824 17.7394 155.825 17.6V15.5018C155.825 15.362 155.769 15.2281 155.671 15.1293C155.572 15.0305 155.438 14.975 155.298 14.975H153.2C153.06 14.975 152.926 15.0305 152.827 15.1293C152.729 15.2281 152.673 15.362 152.673 15.5018V17.6C152.675 17.8888 152.911 18.125 153.2 18.125ZM149 5C144.544 5 140.271 6.76999 137.121 9.92061C133.97 13.0712 132.2 17.3444 132.2 21.8C132.2 26.2556 133.97 30.5288 137.121 33.6794C140.271 36.83 144.544 38.6 149 38.6C151.206 38.6 153.391 38.1655 155.429 37.3212C157.467 36.4769 159.319 35.2394 160.879 33.6794C162.439 32.1194 163.677 30.2674 164.521 28.2291C165.365 26.1908 165.8 24.0062 165.8 21.8C165.8 19.5938 165.365 17.4092 164.521 15.3709C163.677 13.3326 162.439 11.4806 160.879 9.92061C159.319 8.36058 157.467 7.1231 155.429 6.27882C153.391 5.43454 151.206 5 149 5ZM157.75 28.6058C157.75 29.675 156.875 30.55 155.806 30.55H142.194C141.125 30.55 140.25 29.675 140.25 28.6058V14.9943C140.25 13.925 141.125 13.05 142.194 13.05H155.806C156.875 13.05 157.75 13.925 157.75 14.9943V28.6058Z" fill="white"/>
</g>
<g filter="url(#filter3_d_173_18)">
<circle cx="92" cy="22" r="17" fill="white"/>
<path d="M98.8223 14.5668C98.9039 14.4734 98.9664 14.3648 99.0061 14.2473C99.0459 14.1298 99.062 14.0056 99.0537 13.8818C99.0455 13.758 99.0129 13.637 98.9578 13.5259C98.9028 13.4147 98.8264 13.3154 98.733 13.2337C98.6396 13.1521 98.5311 13.0896 98.4135 13.0499C98.296 13.0102 98.1718 12.994 98.048 13.0023C97.9242 13.0106 97.8033 13.0432 97.6921 13.0982C97.5809 13.1532 97.4816 13.2296 97.3999 13.323L92.5738 18.8383L88.4778 13.3778C88.3898 13.2605 88.2757 13.1653 88.1446 13.0997C88.0134 13.0341 87.8688 13 87.7222 13H83.9444C83.7691 13 83.5971 13.0488 83.4479 13.141C83.2987 13.2333 83.1781 13.3652 83.0997 13.5221C83.0213 13.6789 82.9881 13.8545 83.0038 14.0292C83.0196 14.2039 83.0837 14.3707 83.1889 14.511L89.2683 22.6159L84.1777 28.4334C84.0961 28.5268 84.0336 28.6354 83.9939 28.7529C83.9541 28.8704 83.938 28.9946 83.9463 29.1184C83.9545 29.2422 83.9871 29.3631 84.0422 29.4743C84.0972 29.5855 84.1736 29.6848 84.267 29.7664C84.3604 29.8481 84.4689 29.9106 84.5865 29.9503C84.704 29.99 84.8282 30.0062 84.952 29.9979C85.0758 29.9896 85.1967 29.957 85.3079 29.902C85.4191 29.847 85.5184 29.7706 85.6001 29.6772L90.4262 24.1609L94.5222 29.6215C94.6102 29.7388 94.7243 29.834 94.8554 29.8995C94.9866 29.9651 95.1312 29.9992 95.2778 29.9992H99.0556C99.2309 29.9992 99.4029 29.9504 99.5521 29.8582C99.7013 29.766 99.8219 29.634 99.9003 29.4772C99.9787 29.3203 100.012 29.1447 99.9962 28.97C99.9804 28.7953 99.9163 28.6285 99.8111 28.4882L93.7317 20.3833L98.8223 14.5668Z" fill="#AA461A"/>
</g>
<g filter="url(#filter4_d_173_18)">
<g filter="url(#filter5_d_173_18)">
<path d="M51.5999 21.7999C51.5999 31.0783 44.0783 38.5999 34.7999 38.5999C25.5216 38.5999 18 31.0783 18 21.7999C18 12.5216 25.5216 5 34.7999 5C44.0783 5 51.5999 12.5216 51.5999 21.7999Z" fill="#AA461A"/>
</g>
<path d="M34.8 5C25.5215 5 18 12.5215 18 21.8C18 31.0785 25.5215 38.6 34.8 38.6C44.0785 38.6 51.6 31.0785 51.6 21.8C51.6 12.5215 44.0785 5 34.8 5ZM38.7795 16.6095H36.2543C35.955 16.6095 35.6225 17.0033 35.6225 17.5265V19.35H38.7813L38.3035 21.9505H35.6225V29.7573H32.6423V21.9505H29.9385V19.35H32.6423V17.8205C32.6423 15.626 34.1648 13.8428 36.2543 13.8428H38.7795V16.6095Z" fill="white"/>
</g>
<defs>
<filter id="filter0_d_173_18" x="184" y="5" width="44" height="44" filterUnits="userSpaceOnUse" color-interpolation-filters="sRGB">
<feFlood flood-opacity="0" result="BackgroundImageFix"/>
<feColorMatrix in="SourceAlpha" type="matrix" values="0 0 0 0 0 0 0 0 0 0 0 0 0 0 0 0 0 0 127 0" result="hardAlpha"/>
<feOffset dy="5"/>
<feGaussianBlur stdDeviation="2.5"/>
<feComposite in2="hardAlpha" operator="out"/>
<feColorMatrix type="matrix" values="0 0 0 0 0 0 0 0 0 0 0 0 0 0 0 0 0 0 0.25 0"/>
<feBlend mode="normal" in2="BackgroundImageFix" result="effect1_dropShadow_173_18"/>
<feBlend mode="normal" in="SourceGraphic" in2="effect1_dropShadow_173_18" result="shape"/>
</filter>
<filter id="filter1_d_173_18" x="127.2" y="5" width="43.6001" height="43.6001" filterUnits="userSpaceOnUse" color-interpolation-filters="sRGB">
<feFlood flood-opacity="0" result="BackgroundImageFix"/>
<feColorMatrix in="SourceAlpha" type="matrix" values="0 0 0 0 0 0 0 0 0 0 0 0 0 0 0 0 0 0 127 0" result="hardAlpha"/>
<feOffset dy="5"/>
<feGaussianBlur stdDeviation="2.5"/>
<feComposite in2="hardAlpha" operator="out"/>
<feColorMatrix type="matrix" values="0 0 0 0 0 0 0 0 0 0 0 0 0 0 0 0 0 0 0.25 0"/>
<feBlend mode="normal" in2="BackgroundImageFix" result="effect1_dropShadow_173_18"/>
<feBlend mode="normal" in="SourceGraphic" in2="effect1_dropShadow_173_18" result="shape"/>
</filter>
<filter id="filter2_d_173_18" x="114.2" y="0" width="69.5999" height="69.6001" filterUnits="userSpaceOnUse" color-interpolation-filters="sRGB">
<feFlood flood-opacity="0" result="BackgroundImageFix"/>
<feColorMatrix in="SourceAlpha" type="matrix" values="0 0 0 0 0 0 0 0 0 0 0 0 0 0 0 0 0 0 127 0" result="hardAlpha"/>
<feOffset dy="13"/>
<feGaussianBlur stdDeviation="9"/>
<feColorMatrix type="matrix" values="0 0 0 0 0.0658854 0 0 0 0 0.0730469 0 0 0 0 0.1375 0 0 0 0.08 0"/>
<feBlend mode="normal" in2="BackgroundImageFix" result="effect1_dropShadow_173_18"/>
<feBlend mode="normal" in="SourceGraphic" in2="effect1_dropShadow_173_18" result="shape"/>
</filter>
<filter id="filter3_d_173_18" x="70" y="5" width="44" height="44" filterUnits="userSpaceOnUse" color-interpolation-filters="sRGB">
<feFlood flood-opacity="0" result="BackgroundImageFix"/>
<feColorMatrix in="SourceAlpha" type="matrix" values="0 0 0 0 0 0 0 0 0 0 0 0 0 0 0 0 0 0 127 0" result="hardAlpha"/>
<feOffset dy="5"/>
<feGaussianBlur stdDeviation="2.5"/>
<feComposite in2="hardAlpha" operator="out"/>
<feColorMatrix type="matrix" values="0 0 0 0 0 0 0 0 0 0 0 0 0 0 0 0 0 0 0.25 0"/>
<feBlend mode="normal" in2="BackgroundImageFix" result="effect1_dropShadow_173_18"/>
<feBlend mode="normal" in="SourceGraphic" in2="effect1_dropShadow_173_18" result="shape"/>
</filter>
<filter id="filter4_d_173_18" x="13" y="5" width="43.6001" height="43.6001" filterUnits="userSpaceOnUse" color-interpolation-filters="sRGB">
<feFlood flood-opacity="0" result="BackgroundImageFix"/>
<feColorMatrix in="SourceAlpha" type="matrix" values="0 0 0 0 0 0 0 0 0 0 0 0 0 0 0 0 0 0 127 0" result="hardAlpha"/>
<feOffset dy="5"/>
<feGaussianBlur stdDeviation="2.5"/>
<feComposite in2="hardAlpha" operator="out"/>
<feColorMatrix type="matrix" values="0 0 0 0 0 0 0 0 0 0 0 0 0 0 0 0 0 0 0.25 0"/>
<feBlend mode="normal" in2="BackgroundImageFix" result="effect1_dropShadow_173_18"/>
<feBlend mode="normal" in="SourceGraphic" in2="effect1_dropShadow_173_18" result="shape"/>
</filter>
<filter id="filter5_d_173_18" x="0" y="0" width="69.5999" height="69.6001" filterUnits="userSpaceOnUse" color-interpolation-filters="sRGB">
<feFlood flood-opacity="0" result="BackgroundImageFix"/>
<feColorMatrix in="SourceAlpha" type="matrix" values="0 0 0 0 0 0 0 0 0 0 0 0 0 0 0 0 0 0 127 0" result="hardAlpha"/>
<feOffset dy="13"/>
<feGaussianBlur stdDeviation="9"/>
<feColorMatrix type="matrix" values="0 0 0 0 0.0658854 0 0 0 0 0.0730469 0 0 0 0 0.1375 0 0 0 0.08 0"/>
<feBlend mode="normal" in2="BackgroundImageFix" result="effect1_dropShadow_173_18"/>
<feBlend mode="normal" in="SourceGraphic" in2="effect1_dropShadow_173_18" result="shape"/>
</filter>
</defs>
</svg>
